<?xml version="1.0" encoding="utf-8"?>
<!-- Generator: Adobe Illustrator 18.1.0, SVG Export Plug-In . SVG Version: 6.00 Build 0)  -->
<svg version="1.1" id="Layer_1" xmlns="http://www.w3.org/2000/svg" xmlns:xlink="http://www.w3.org/1999/xlink" x="0px" y="0px"
	 viewBox="0 0 500 500" enable-background="new 0 0 500 500" xml:space="preserve">
<path fill="#010101" d="M296.1,4.3c0-0.1-0.1-0.1-0.1-0.1l-0.1,0.1C281,1.5,265.6,0,250,0s-31,1.5-45.8,4.3l-0.1-0.1L204,4.3
	C87.9,25.9,0,127.6,0,250c0,138.1,112,250,250,250c138.1,0,250-112,250-250C500,127.6,412.1,25.9,296.1,4.3z M33.6,267.5h100.6
	c1.2,26.2,4.8,53.9,11.4,82.6H57.4C44.4,325,36,297.1,33.6,267.5z M134,230.9H33.8c2.5-29,10.8-56.4,23.6-81h86.9
	C138.9,174.5,135.1,201.6,134,230.9z M178.4,149.9h142.4c5.8,24.2,9.9,51.4,10.9,81H167.5C168.5,201.2,172.6,174.1,178.4,149.9z
	 M167.9,267.5h163.5c-1.4,26.1-5.2,53.8-12.5,82.6H180.8C173.2,321.2,169.2,293.6,167.9,267.5z M365.8,267.5h100.6
	c-2.4,29.6-10.8,57.5-23.8,82.6h-88.2C361,321.4,364.6,293.8,365.8,267.5z M366,230.9c-1-29.2-4.9-56.4-10.3-81h86.9
	c12.9,24.6,21.1,52,23.6,81H366z M418.5,113.3h-72.2C337.8,85.4,327.9,62,319,44.1C358.4,57.4,392.8,81.6,418.5,113.3z M274.5,34.2
	c8.4,13.6,23.2,41,35.9,79H188.8c12.8-37.9,28-65.1,36.5-79c8.1-0.9,16.4-1.5,24.6-1.5C258.2,32.9,266.5,33.4,274.5,34.2z M181,44.1
	c-8.8,17.9-18.8,41.1-27.2,69.1H81.4C107.2,81.6,141.6,57.4,181,44.1z M81.5,386.8h74.2c7.3,22.8,16.5,46.2,28.1,70.1
	C143.2,443.9,107.9,419.1,81.5,386.8z M227.5,466c-15-27.1-26.8-53.6-35.8-79.2h116.1c-8.9,25.6-20.5,52.1-35.5,79.2
	c-7.4,0.8-14.9,1.1-22.5,1.1C242.4,467.1,234.9,466.8,227.5,466z M316.1,456.9c11.6-23.9,20.9-47.2,28.1-70.1h74.2
	C392.1,419.1,356.8,443.9,316.1,456.9z"/>
</svg>
