<svg width="45" height="42" viewBox="0 0 45 42" fill="none" xmlns="http://www.w3.org/2000/svg">
<path d="M14.625 3.5H30.375C36.375 3.5 41.25 8.05 41.25 13.65V28.35C41.25 31.0419 40.1042 33.6236 38.0648 35.5271C36.0253 37.4306 33.2592 38.5 30.375 38.5H14.625C8.625 38.5 3.75 33.95 3.75 28.35V13.65C3.75 10.9581 4.89576 8.37636 6.93521 6.47287C8.97467 4.56937 11.7408 3.5 14.625 3.5ZM14.25 7C12.4598 7 10.7429 7.66375 9.47703 8.84523C8.21116 10.0267 7.5 11.6291 7.5 13.3V28.7C7.5 32.1825 10.5187 35 14.25 35H30.75C32.5402 35 34.2571 34.3363 35.523 33.1548C36.7888 31.9733 37.5 30.3709 37.5 28.7V13.3C37.5 9.8175 34.4812 7 30.75 7H14.25ZM32.3438 9.625C32.9654 9.625 33.5615 9.85547 34.001 10.2657C34.4406 10.6759 34.6875 11.2323 34.6875 11.8125C34.6875 12.3927 34.4406 12.9491 34.001 13.3593C33.5615 13.7695 32.9654 14 32.3438 14C31.7221 14 31.126 13.7695 30.6865 13.3593C30.2469 12.9491 30 12.3927 30 11.8125C30 11.2323 30.2469 10.6759 30.6865 10.2657C31.126 9.85547 31.7221 9.625 32.3438 9.625ZM22.5 12.25C24.9864 12.25 27.371 13.1719 29.1291 14.8128C30.8873 16.4538 31.875 18.6794 31.875 21C31.875 23.3206 30.8873 25.5462 29.1291 27.1872C27.371 28.8281 24.9864 29.75 22.5 29.75C20.0136 29.75 17.629 28.8281 15.8709 27.1872C14.1127 25.5462 13.125 23.3206 13.125 21C13.125 18.6794 14.1127 16.4538 15.8709 14.8128C17.629 13.1719 20.0136 12.25 22.5 12.25ZM22.5 15.75C21.0082 15.75 19.5774 16.3031 18.5225 17.2877C17.4676 18.2723 16.875 19.6076 16.875 21C16.875 22.3924 17.4676 23.7277 18.5225 24.7123C19.5774 25.6969 21.0082 26.25 22.5 26.25C23.9918 26.25 25.4226 25.6969 26.4775 24.7123C27.5324 23.7277 28.125 22.3924 28.125 21C28.125 19.6076 27.5324 18.2723 26.4775 17.2877C25.4226 16.3031 23.9918 15.75 22.5 15.75Z" fill="white"/>
</svg>
