<svg width="28" height="28" viewBox="0 0 28 28" fill="none" xmlns="http://www.w3.org/2000/svg">
<rect x="0.0983887" width="27.541" height="28" rx="4" fill="black"/>
<path d="M13.753 12.2418C13.9195 12.3045 14.0829 12.151 14.0277 11.9876C13.6488 10.8664 12.2768 10.4481 11.0014 11.4429C10.3305 11.9662 10.0784 12.0774 10.072 12.0802C10.5143 12.5048 11.0196 13.9296 12.1223 14.0872C13.337 14.2987 14.4121 13.1512 13.5325 12.6261C12.954 12.2808 12.273 12.0802 11.5429 12.0802C12.3083 11.9145 13.0723 11.9856 13.753 12.2418Z" fill="#FFEBB9"/>
<path d="M19.2535 11.4428C17.0519 9.72568 15.6478 12.4336 16.5205 12.1652C17.1404 11.9745 17.8181 11.933 18.4978 12.0801C17.3461 12.0801 16.2845 12.5869 15.5767 13.4118C15.6348 12.1155 15.7227 11.304 15.8247 10.7004C16.413 10.681 17.197 10.2249 17.6276 9.42668C18.37 8.15106 18.0257 6.84313 17.9149 6.01782C17.3349 6.56018 14.8011 5.92468 13.7966 7.57742C13.3529 8.3075 13.4818 9.19591 13.9486 9.84605C14.0964 10.0519 14.4497 9.95311 14.4597 9.70334C14.5036 8.61681 15.0667 7.7959 16.1167 7.34123C15.6455 7.92735 15.3362 8.58355 15.1764 9.26179C14.928 10.3183 14.6685 11.0114 14.5733 14.3789C14.5636 14.7204 14.8517 15.0031 15.2075 14.9988C15.4651 14.9957 15.6857 14.8387 15.7848 14.6104C15.9354 14.2632 16.1806 13.9038 16.5796 13.5746C16.9588 13.977 17.5357 14.1911 18.1327 14.0872C19.2307 13.9303 19.7432 12.5023 20.183 12.0801C20.1765 12.0774 19.9244 11.9662 19.2535 11.4428Z" fill="#FFEBB9"/>
<path d="M22.49 15.6387C21.8017 15.1903 21.0526 15.5098 20.7086 15.7005L16.3914 18.7345L13.8636 18.735L13.2317 18.1282H15.5532C16.2513 18.1282 17.0333 17.6915 17.0333 16.9144C17.0333 16.0892 16.2513 15.7005 15.5532 15.7005H14.6832C14.037 15.7005 13.2817 15.7558 12.7492 15.4821C12.2433 15.235 11.6607 15.0943 11.0389 15.0943C9.99461 15.0943 9.06 15.494 8.41956 16.1244L5.01636 19.3412L8.80805 22.982L10.0719 21.1616H16.0445C16.6815 21.1616 17.2963 20.9372 17.7725 20.5311L22.5332 16.4703C22.7979 16.2446 22.7829 15.8295 22.49 15.6387Z" fill="#FFEBB9"/>
</svg>
