<svg width="28" height="28" viewBox="0 0 28 28" fill="none" xmlns="http://www.w3.org/2000/svg">
<rect width="27.541" height="28" rx="4" fill="black"/>
<path d="M14.6946 18.5977H15.559V21H14.6946V18.5977Z" fill="#FFEBB9"/>
<path d="M12.9656 18.5977H13.8301V21H12.9656V18.5977Z" fill="#FFEBB9"/>
<path d="M17.1728 6H11.3518C11.1131 6 10.9196 6.19676 10.9196 6.43945V21H12.1011V18.1582C12.1011 17.9155 12.2946 17.7188 12.5333 17.7188H15.9913C16.23 17.7188 16.4235 17.9155 16.4235 18.1582V21H17.605V6.43945C17.605 6.19676 17.4115 6 17.1728 6ZM12.9656 16.4004C12.9656 16.6431 12.772 16.8398 12.5333 16.8398C12.2946 16.8398 12.1011 16.6431 12.1011 16.4004V15.5215C12.1011 15.2788 12.2946 15.082 12.5333 15.082C12.772 15.082 12.9656 15.2788 12.9656 15.5215V16.4004ZM12.9656 13.7637C12.9656 14.0064 12.772 14.2031 12.5333 14.2031C12.2946 14.2031 12.1011 14.0064 12.1011 13.7637V12.8848C12.1011 12.6421 12.2946 12.4453 12.5333 12.4453C12.772 12.4453 12.9656 12.6421 12.9656 12.8848V13.7637ZM14.6946 16.4004C14.6946 16.6431 14.501 16.8398 14.2623 16.8398C14.0236 16.8398 13.8301 16.6431 13.8301 16.4004V15.5215C13.8301 15.2788 14.0236 15.082 14.2623 15.082C14.501 15.082 14.6946 15.2788 14.6946 15.5215V16.4004ZM14.6946 13.7637C14.6946 14.0064 14.501 14.2031 14.2623 14.2031C14.0236 14.2031 13.8301 14.0064 13.8301 13.7637V12.8848C13.8301 12.6421 14.0236 12.4453 14.2623 12.4453C14.501 12.4453 14.6946 12.6421 14.6946 12.8848V13.7637ZM16.4235 16.4004C16.4235 16.6431 16.23 16.8398 15.9913 16.8398C15.7526 16.8398 15.559 16.6431 15.559 16.4004V15.5215C15.559 15.2788 15.7526 15.082 15.9913 15.082C16.23 15.082 16.4235 15.2788 16.4235 15.5215V16.4004ZM16.4235 13.7637C16.4235 14.0064 16.23 14.2031 15.9913 14.2031C15.7526 14.2031 15.559 14.0064 15.559 13.7637V12.8848C15.559 12.6421 15.7526 12.4453 15.9913 12.4453C16.23 12.4453 16.4235 12.6421 16.4235 12.8848V13.7637ZM12.9656 11.127C12.9656 11.3696 12.772 11.5664 12.5333 11.5664C12.2946 11.5664 12.1011 11.3696 12.1011 11.127V10.248C12.1011 10.0054 12.2946 9.80859 12.5333 9.80859C12.772 9.80859 12.9656 10.0054 12.9656 10.248V11.127ZM14.6946 11.127C14.6946 11.3696 14.501 11.5664 14.2623 11.5664C14.0236 11.5664 13.8301 11.3696 13.8301 11.127V10.248C13.8301 10.0054 14.0236 9.80859 14.2623 9.80859C14.501 9.80859 14.6946 10.0054 14.6946 10.248V11.127ZM16.4235 11.127C16.4235 11.3696 16.23 11.5664 15.9913 11.5664C15.7526 11.5664 15.559 11.3696 15.559 11.127V10.248C15.559 10.0054 15.7526 9.80859 15.9913 9.80859C16.23 9.80859 16.4235 10.0054 16.4235 10.248V11.127ZM12.9656 8.49023C12.9656 8.73293 12.772 8.92969 12.5333 8.92969C12.2946 8.92969 12.1011 8.73293 12.1011 8.49023V7.61133C12.1011 7.36863 12.2946 7.17188 12.5333 7.17188C12.772 7.17188 12.9656 7.36863 12.9656 7.61133V8.49023ZM14.6946 8.49023C14.6946 8.73293 14.501 8.92969 14.2623 8.92969C14.0236 8.92969 13.8301 8.73293 13.8301 8.49023V7.61133C13.8301 7.36863 14.0236 7.17188 14.2623 7.17188C14.501 7.17188 14.6946 7.36863 14.6946 7.61133V8.49023ZM16.4235 8.49023C16.4235 8.73293 16.23 8.92969 15.9913 8.92969C15.7526 8.92969 15.559 8.73293 15.559 8.49023V7.61133C15.559 7.36863 15.7526 7.17188 15.9913 7.17188C16.23 7.17188 16.4235 7.36863 16.4235 7.61133V8.49023Z" fill="#FFEBB9"/>
<path d="M21.2071 11.8594H18.4695V21H21.2071C21.4458 21 21.6394 20.8032 21.6394 20.5605V12.2988C21.6394 12.0561 21.4458 11.8594 21.2071 11.8594ZM20.4867 17.5723C20.4867 17.815 20.2932 18.0117 20.0544 18.0117C19.8157 18.0117 19.6222 17.815 19.6222 17.5723V16.6934C19.6222 16.4507 19.8157 16.2539 20.0544 16.2539C20.2932 16.2539 20.4867 16.4507 20.4867 16.6934V17.5723ZM20.4867 14.9355C20.4867 15.1782 20.2932 15.375 20.0544 15.375C19.8157 15.375 19.6222 15.1782 19.6222 14.9355V14.0566C19.6222 13.8139 19.8157 13.6172 20.0544 13.6172C20.2932 13.6172 20.4867 13.8139 20.4867 14.0566V14.9355Z" fill="#FFEBB9"/>
<path d="M7.3175 11.8594C7.07879 11.8594 6.88525 12.0561 6.88525 12.2988V20.5605C6.88525 20.8032 7.07879 21 7.3175 21H10.0551V11.8594H7.3175ZM8.90242 17.5723C8.90242 17.815 8.70888 18.0117 8.47017 18.0117C8.23145 18.0117 8.03792 17.815 8.03792 17.5723V16.6934C8.03792 16.4507 8.23145 16.2539 8.47017 16.2539C8.70888 16.2539 8.90242 16.4507 8.90242 16.6934V17.5723ZM8.90242 14.9355C8.90242 15.1782 8.70888 15.375 8.47017 15.375C8.23145 15.375 8.03792 15.1782 8.03792 14.9355V14.0566C8.03792 13.8139 8.23145 13.6172 8.47017 13.6172C8.70888 13.6172 8.90242 13.8139 8.90242 14.0566V14.9355Z" fill="#FFEBB9"/>
</svg>
